# xmcd
#
# Track frame offsets: 
#        150
#        48055
#        73865
#        100105
#        159115
#        228110
#        296755
#
# Disc length: 4665 seconds
#
# Revision: 1
# Processed by: cddbd v1.5.2PL0 Copyright (c) Steve Scherf et al.
# Submitted via: ExactAudioCopy v0.95b2
#
DISCID=51123707
DTITLE=Grateful Dead - View From The Vault III Disc 02
DYEAR=2002
DGENRE=Rock
TTITLE0=China Cat Sunflower ->
TTITLE1=I Know You Rider ->
TTITLE2=We Can Run
TTITLE3=Estimated Prophet ->
TTITLE4=Terrapin Station ->
TTITLE5=Jam ->
TTITLE6=Space ->
EXTD=YEAR: 2002
EXTT0=
EXTT1=
EXTT2=
EXTT3=
EXTT4=
EXTT5=
EXTT6=
PLAYORDER=
